PathFileType	4	(X/Y/Z)	E:\3-PhD\Data\MocapData\ElaboratedData\012\pre\dynamicElaborations\RunL1\RunL1.trc
DataRate	CameraRate	NumFrames	NumMarkers	Units	OrigDataRate	OrigDataStartFrame	OrigNumFrames
200	200	5	56	mm	200	715	123
Frame#	Time	FHD			LBHD			RBHD			C7			T10			CLAV			LSHO			LUUPA			LMUPA			LDUPA			LLEP			LMEP			LRAD			LUL			LRFIN			RSHO			RUPA1			RMUPA			RDUPA			RLEP			RMEP			RRAD			RUL			RUFIN			LASI			RASI			USACR			LSACR			RSACR			LTHI1			LTHI2			LTHI3			LTHI4			LLFC			LTIB1			LTIB2			LTIB3			LTIB4			LHEE			LMT1			LMT5			LMT2			RTHI			RTHI2			RTHI3			RTHI4			RLFC			RTIB1			RTIB2			RTIB3			RTIB4			RLMAL			RHEE			RMT1			RMT2			RMT5		
		X1	Y1	Z1	X2	Y2	Z2	X3	Y3	Z3	X4	Y4	Z4	X5	Y5	Z5	X6	Y6	Z6	X7	Y7	Z7	X8	Y8	Z8	X9	Y9	Z9	X10	Y10	Z10	X11	Y11	Z11	X12	Y12	Z12	X13	Y13	Z13	X14	Y14	Z14	X15	Y15	Z15	X16	Y16	Z16	X17	Y17	Z17	X18	Y18	Z18	X19	Y19	Z19	X20	Y20	Z20	X21	Y21	Z21	X22	Y22	Z22	X23	Y23	Z23	X24	Y24	Z24	X25	Y25	Z25	X26	Y26	Z26	X27	Y27	Z27	X28	Y28	Z28	X29	Y29	Z29	X30	Y30	Z30	X31	Y31	Z31	X32	Y32	Z32	X33	Y33	Z33	X34	Y34	Z34	X35	Y35	Z35	X36	Y36	Z36	X37	Y37	Z37	X38	Y38	Z38	X39	Y39	Z39	X40	Y40	Z40	X41	Y41	Z41	X42	Y42	Z42	X43	Y43	Z43	X44	Y44	Z44	X45	Y45	Z45	X46	Y46	Z46	X47	Y47	Z47	X48	Y48	Z48	X49	Y49	Z49	X50	Y50	Z50	X51	Y51	Z51	X52	Y52	Z52	X53	Y53	Z53	X54	Y54	Z54	X55	Y55	Z55	X56	Y56	Z56	
715	3.570000	-681.258209	1728.504197	390.281461	-830.635136	1752.728252	280.130729	-827.733794	1732.278454	431.087779	-917.598403	1567.146587	360.891492	-1043.922969	1235.648729	377.881614	-804.716304	1444.081880	336.313315	-856.901653	1556.501091	185.252768	-993.535029	1399.374561	73.264308	-966.763642	1357.721271	64.775242	-1023.763150	1338.596827	55.207079	-1036.450579	1252.228540	34.369585	-1068.066762	1235.879517	117.506928	-806.424199	1143.960743	131.182782	-831.372255	1082.572625	88.372230	-727.950922	1108.714252	122.909130	-812.909560	1498.074961	519.166429	-1001.459887	1372.523998	614.137964	-983.590227	1325.239174	617.366880	-1041.339545	1316.455116	625.047756	-1078.117933	1257.332978	634.805466	-1108.213526	1246.922178	555.974307	-883.130275	1077.856853	554.969344	-920.335684	1020.166468	595.239801	-825.811528	1008.750739	546.018279	-944.937487	1013.174495	216.125051	-920.441018	968.638338	443.110025	-1091.135889	1106.881929	373.974408	-1110.743316	1080.879067	345.814177	-1100.725982	1072.956239	402.419009	-978.324960	771.741361	140.041638	-907.918200	721.157858	138.797373	-867.074057	742.092766	146.037500	-909.556525	661.809110	144.721712	-845.318943	517.176451	158.728056	-851.094967	332.697167	240.567175	-883.672905	291.822811	173.256752	-857.217205	282.769669	209.597771	-884.982252	211.380681	245.540737	-1026.922084	50.425299	273.584209	-809.639874	52.736088	286.164637	-844.024170	35.795531	184.369375	-804.479153	51.769717	229.790650	-1021.198315	661.670685	492.101534	-983.838186	604.957198	484.393480	-952.324082	603.872632	472.885541	-1017.033667	529.473884	467.844986	-1044.213857	436.002241	441.571418	-1155.251496	393.521969	391.840710	-1226.929301	466.486470	430.494686	-1234.740036	425.319332	412.777901	-1281.425030	422.777255	378.634076	-1439.492307	508.178993	376.143777	-1475.962297	561.344435	322.697841	-1501.691574	339.232605	314.166551	-1490.101930	340.477387	357.303422	-1510.291379	383.379230	407.829677	
716	3.575000	-658.690584	1728.798267	390.962880	-807.336682	1752.901064	279.875886	-805.367029	1732.817339	430.980421	-894.740294	1567.017307	359.874995	-1019.413876	1235.575120	378.415250	-780.808000	1444.033952	337.550786	-831.020594	1555.668280	185.526208	-963.522394	1395.807248	72.782984	-935.875172	1354.508159	64.944701	-992.454278	1334.516513	54.466188	-1002.771588	1247.534725	34.125967	-1036.384847	1231.410783	116.430680	-773.760933	1144.058862	138.401635	-796.233774	1081.551522	95.756300	-694.516709	1110.092883	132.889399	-792.138715	1498.801346	520.218178	-982.116832	1373.099505	612.028124	-964.459526	1325.688055	615.383514	-1022.364966	1317.191995	622.191658	-1059.839813	1258.470505	631.413881	-1088.466758	1247.915891	552.290937	-867.126593	1074.194820	556.787750	-905.940686	1017.825258	597.733518	-811.224497	1003.873565	549.430805	-920.838079	1013.665019	215.106339	-896.852804	967.793326	442.257296	-1067.186079	1106.999624	373.930434	-1086.628508	1081.066226	345.674815	-1076.865286	1073.078755	402.397417	-957.815626	770.203494	139.528765	-888.728024	717.919807	138.005219	-847.439985	737.725322	144.819509	-891.784992	658.645591	144.261750	-830.792780	512.336953	158.121873	-841.921534	328.558149	240.046206	-876.616079	288.864970	172.957901	-850.289840	278.951601	209.093904	-880.484358	208.508630	245.259247	-1027.053420	50.439471	273.708698	-809.745775	53.036141	286.243073	-844.235012	36.160945	184.284079	-804.718406	51.904892	229.753844	-987.347461	661.242628	492.368518	-947.984842	605.967303	484.528925	-916.490500	605.850910	472.695767	-978.387918	529.248657	468.288266	-1002.152708	434.966895	441.544049	-1112.583041	391.213375	391.655378	-1185.078764	462.650232	431.504894	-1192.471752	421.617021	413.164776	-1239.261731	418.793063	379.228289	-1398.332220	501.410089	378.123582	-1437.282857	554.138900	325.444774	-1456.736817	331.657256	315.034858	-1444.611346	332.843373	358.033742	-1465.210342	374.592049	409.439736	
717	3.580000	-636.118340	1729.317793	391.634581	-784.068670	1753.301581	279.696554	-782.973243	1733.673769	430.952374	-871.945005	1567.131081	358.978119	-994.875476	1235.630838	378.737879	-756.980937	1444.473135	338.937292	-804.936693	1555.304101	186.046956	-933.538362	1392.988756	72.547824	-905.079960	1352.073149	65.264253	-961.265405	1331.261365	54.011816	-969.305785	1243.780655	34.164336	-1004.775784	1227.878489	115.667966	-741.514061	1145.062356	145.802739	-761.456257	1081.571542	103.287902	-661.557406	1112.394430	143.193040	-771.549360	1499.888246	521.363759	-963.015821	1374.301862	609.931499	-945.644672	1326.792852	613.625463	-1003.728222	1318.668493	619.375928	-1041.861202	1260.226886	628.140600	-1068.899835	1249.481633	548.679219	-850.928514	1071.985384	558.486614	-891.098108	1016.814605	600.019379	-796.166457	1000.758796	552.588633	-896.515031	1014.189592	214.225724	-873.227347	967.502416	441.545657	-1043.203201	1107.244191	373.643772	-1062.452405	1081.398607	345.257729	-1053.030305	1073.382478	402.095317	-937.596514	768.518167	139.173641	-870.024889	714.326389	137.442885	-828.218629	732.795008	143.922948	-874.672503	655.202250	144.084049	-817.604185	506.998869	157.778439	-833.541853	324.209107	239.661553	-870.288954	285.670063	172.822235	-844.058146	274.972262	208.725440	-876.463983	205.530532	245.107352	-1027.168071	50.432643	273.850719	-809.842287	53.398976	286.289508	-844.422018	36.519350	184.202696	-804.917285	52.067116	229.715420	-953.438749	661.571720	492.620845	-912.063348	607.857879	484.616604	-880.649264	608.726035	472.411720	-939.549613	529.988225	468.774437	-959.874573	434.839076	441.442958	-1069.678448	389.326588	391.481303	-1143.246523	458.988491	432.386768	-1150.064045	418.022528	413.531530	-1196.932111	414.619205	379.787804	-1357.357409	493.747827	380.018543	-1398.857391	545.797973	328.084776	-1411.200082	323.085237	315.851876	-1398.672023	324.269125	358.706278	-1419.818583	364.823528	410.945549	
718	3.585000	-613.529181	1730.078607	392.305502	-760.839056	1753.935634	279.608273	-760.549102	1734.842127	431.008311	-849.212259	1567.477403	358.206526	-970.327852	1235.800904	378.804294	-733.219573	1445.347422	340.474805	-778.698902	1555.427411	186.807517	-903.578500	1390.893863	72.505322	-874.385415	1350.380658	65.726805	-930.199132	1328.796760	53.802095	-936.087588	1240.918439	34.456457	-973.287014	1225.243308	115.185005	-709.743370	1146.952574	153.356486	-727.106590	1082.614683	110.939167	-629.147542	1115.631093	153.745912	-751.132833	1501.320415	522.629956	-944.202968	1376.127417	607.860134	-927.184823	1328.546785	612.088900	-985.450192	1320.860063	616.631425	-1024.192340	1262.596031	625.006248	-1049.507381	1251.615415	545.176463	-834.461546	1071.259759	560.082377	-875.753425	1017.115331	602.053124	-780.543908	999.417503	555.482723	-871.974111	1014.693658	213.496419	-849.558612	967.782601	441.023801	-1019.182130	1107.590529	373.115039	-1038.215892	1081.861878	344.561262	-1029.224657	1073.829961	401.499261	-917.608844	766.828560	138.952336	-851.715320	710.601862	137.111815	-809.345086	727.593282	143.371314	-858.075875	651.695492	144.143495	-805.475179	501.465219	157.693560	-825.885718	319.873929	239.480482	-864.485925	282.427474	172.872055	-838.368067	271.021186	208.578872	-872.850865	202.638599	245.137444	-1027.265007	50.485829	274.004691	-809.923022	53.745611	286.304267	-844.577584	36.834249	184.128605	-805.045479	52.194747	229.682487	-919.578108	662.678173	492.816588	-876.182966	610.643406	484.656471	-844.903634	612.505456	472.056549	-900.632032	531.719207	469.294865	-917.496254	435.643341	441.294683	-1026.614960	387.892665	391.320573	-1101.494427	455.521757	433.143587	-1107.572975	414.566534	413.878782	-1154.476506	410.292744	380.324489	-1316.573256	485.234387	381.788210	-1360.636230	536.350408	330.556907	-1365.078187	313.601568	316.617935	-1352.286502	314.844941	359.330141	-1374.148151	354.181443	412.317253	
719	3.590000	-590.910921	1731.094029	392.988636	-737.651766	1754.812324	279.627597	-738.087260	1736.315648	431.155909	-826.532485	1568.052543	357.563402	-945.773988	1236.085443	378.605682	-709.509111	1446.605561	342.165966	-752.366919	1556.047057	187.801144	-873.633207	1389.491456	72.605014	-843.792035	1349.384970	66.333755	-899.244615	1327.080017	53.787845	-903.132932	1238.896695	34.966496	-941.956413	1223.456939	114.953594	-678.495586	1149.693237	161.031116	-693.240473	1084.638218	118.685564	-597.351468	1119.789180	164.468122	-730.876901	1503.081894	524.035685	-925.704600	1378.561430	605.809780	-909.090611	1330.938115	610.760267	-967.521260	1323.719699	613.976588	-1006.807959	1265.553737	622.019898	-1030.279090	1254.294810	541.814140	-817.665703	1071.998777	561.597909	-859.877623	1018.670888	603.801948	-764.293562	999.801031	558.118188	-847.223925	1015.126460	212.918650	-825.839929	968.617332	440.728863	-995.110024	1108.024486	372.356673	-1013.913332	1082.445867	343.600496	-1005.437710	1074.398698	400.614259	-897.804702	765.249566	138.849120	-833.717247	706.939267	136.996716	-790.762393	722.387332	143.148153	-841.860716	648.310759	144.393364	-794.123904	496.025070	157.854306	-818.846184	315.771723	239.541719	-859.012453	279.339008	173.102762	-833.062245	267.293496	208.692560	-869.550754	200.025417	245.355263	-1027.337546	50.702674	274.163831	-809.983452	54.030971	286.287604	-844.697232	37.091272	184.067483	-805.093051	52.264715	229.657378	-885.870210	664.561792	492.913590	-840.456289	614.315967	484.647597	-809.357676	617.176096	471.655543	-861.758349	534.444698	469.831984	-875.141255	437.400506	441.124917	-983.468423	386.933682	391.167317	-1059.873143	452.255346	433.784008	-1065.047668	411.270627	414.203982	-1111.928593	405.851160	380.845290	-1275.962214	475.912266	383.402309	-1322.555296	525.831252	332.811854	-1318.360683	303.303804	317.332686	-1305.438628	304.670077	359.917668	-1328.207161	342.770494	413.534137	
